<svg xmlns="http://www.w3.org/2000/svg" xmlns:xlink="http://www.w3.org/1999/xlink" width="1451" height="884" viewBox="-20 -20 1451 884"><defs><filter id="sh" x="-20%" y="-20%" width="150%" height="150%"><feDropShadow dx="1.5" dy="2" stdDeviation="1.6" flood-color="#000000" flood-opacity="0.22"/></filter><marker id="aBDC1C6" viewBox="0 0 10 10" refX="9" refY="5" markerWidth="6" markerHeight="6" orient="auto-start-reverse"><path d="M 0 0 L 10 5 L 0 10 z" fill="#BDC1C6"/></marker><marker id="a4285F4" viewBox="0 0 10 10" refX="9" refY="5" markerWidth="6" markerHeight="6" orient="auto-start-reverse"><path d="M 0 0 L 10 5 L 0 10 z" fill="#4285F4"/></marker><marker id="a5F6368" viewBox="0 0 10 10" refX="9" refY="5" markerWidth="6" markerHeight="6" orient="auto-start-reverse"><path d="M 0 0 L 10 5 L 0 10 z" fill="#5F6368"/></marker><marker id="aF9AB00" viewBox="0 0 10 10" refX="9" refY="5" markerWidth="6" markerHeight="6" orient="auto-start-reverse"><path d="M 0 0 L 10 5 L 0 10 z" fill="#F9AB00"/></marker></defs><rect x="-20.0" y="-20.0" width="1451.0" height="884.0" fill="#ffffff"/><rect x="0.0" y="0.0" width="1350.0" height="844.0" rx="0" fill="#F6F6F6" stroke="none" stroke-width="1"/><rect x="0.0" y="0.0" width="1350.0" height="40.0" rx="0" fill="#4DA1F5" stroke="none" stroke-width="1" filter="url(#sh)"/><text x="10.0" y="24.2" font-size="14.0" fill="#FFFFFF" text-anchor="start" font-weight="bold" font-family="Helvetica, Arial, sans-serif">Buka bedah BBCA · kamu · layar · dapur · gudang</text><rect x="36.0" y="598.0" width="1278.0" height="150.0" rx="0" fill="none" stroke="#9AA0A6" stroke-dasharray="7,5" stroke-width="1"/><text x="46.0" y="615.0" font-size="11.0" fill="#5F6368" text-anchor="start" font-weight="normal" font-family="Helvetica, Arial, sans-serif">kalo nanya</text><rect x="60.0" y="96.0" width="190.0" height="56.0" rx="0" fill="#FFFFFF" stroke="#DDDDDD" stroke-width="1" filter="url(#sh)"/><text x="74.0" y="120.9" text-anchor="start" xml:space="preserve" font-family="Helvetica, Arial, sans-serif"><tspan fill="#202124" font-size="13.0" font-weight="bold">Kamu</tspan></text><text x="74.0" y="136.9" text-anchor="start" xml:space="preserve" font-family="Helvetica, Arial, sans-serif"><tspan fill="#5f6368" font-size="11.0" font-weight="normal">orangnya</tspan></text><rect x="320.0" y="96.0" width="190.0" height="56.0" rx="0" fill="#FFFFFF" stroke="#DDDDDD" stroke-width="1" filter="url(#sh)"/><text x="334.0" y="120.9" text-anchor="start" xml:space="preserve" font-family="Helvetica, Arial, sans-serif"><tspan fill="#202124" font-size="13.0" font-weight="bold">Hari Ini</tspan></text><text x="334.0" y="136.9" text-anchor="start" xml:space="preserve" font-family="Helvetica, Arial, sans-serif"><tspan fill="#5f6368" font-size="11.0" font-weight="normal">misal BBCA naik</tspan></text><rect x="580.0" y="96.0" width="190.0" height="56.0" rx="0" fill="#FFFFFF" stroke="#DDDDDD" stroke-width="1" filter="url(#sh)"/><text x="594.0" y="120.9" text-anchor="start" xml:space="preserve" font-family="Helvetica, Arial, sans-serif"><tspan fill="#202124" font-size="13.0" font-weight="bold">Bedah</tspan></text><text x="594.0" y="136.9" text-anchor="start" xml:space="preserve" font-family="Helvetica, Arial, sans-serif"><tspan fill="#5f6368" font-size="11.0" font-weight="normal">cerita si BBCA</tspan></text><rect x="840.0" y="96.0" width="190.0" height="56.0" rx="0" fill="#FFFFFF" stroke="#DDDDDD" stroke-width="1" filter="url(#sh)"/><text x="854.0" y="120.9" text-anchor="start" xml:space="preserve" font-family="Helvetica, Arial, sans-serif"><tspan fill="#202124" font-size="13.0" font-weight="bold">Tukang cek</tspan></text><text x="854.0" y="136.9" text-anchor="start" xml:space="preserve" font-family="Helvetica, Arial, sans-serif"><tspan fill="#5f6368" font-size="11.0" font-weight="normal">tukang uji</tspan></text><rect x="1100.0" y="96.0" width="190.0" height="56.0" rx="0" fill="#FFFFFF" stroke="#DDDDDD" stroke-width="1" filter="url(#sh)"/><text x="1114.0" y="120.9" text-anchor="start" xml:space="preserve" font-family="Helvetica, Arial, sans-serif"><tspan fill="#202124" font-size="13.0" font-weight="bold">Gudang</tspan></text><text x="1114.0" y="136.9" text-anchor="start" xml:space="preserve" font-family="Helvetica, Arial, sans-serif"><tspan fill="#5f6368" font-size="11.0" font-weight="normal">harga + catatanku</tspan></text><rect x="409.0" y="206.0" width="12.0" height="64.0" rx="0" fill="#E8F0FE" stroke="#4285F4" stroke-width="1"/><rect x="1189.0" y="414.0" width="12.0" height="64.0" rx="0" fill="#E8F0FE" stroke="#4285F4" stroke-width="1"/><rect x="929.0" y="362.0" width="12.0" height="168.0" rx="0" fill="#E8F0FE" stroke="#4285F4" stroke-width="1"/><rect x="669.0" y="310.0" width="12.0" height="272.0" rx="0" fill="#E8F0FE" stroke="#4285F4" stroke-width="1"/><rect x="669.0" y="674.0" width="12.0" height="64.0" rx="0" fill="#E8F0FE" stroke="#4285F4" stroke-width="1"/><rect x="1211.0" y="636.0" width="200.0" height="30.0" rx="0" fill="#F1F3F4" stroke="none" stroke-width="1"/><text x="1221.0" y="647.3" font-size="11.0" fill="#5F6368" text-anchor="start" font-weight="normal" font-family="Helvetica, Arial, sans-serif">angka dari 11 Sep kemarin,</text><text x="1221.0" y="661.3" font-size="11.0" fill="#5F6368" text-anchor="start" font-weight="normal" font-family="Helvetica, Arial, sans-serif">bukan live</text><path d="M 155.0 152.0 L 155.0 804.0" fill="none" stroke="#BDC1C6" stroke-width="1" stroke-dasharray="6,4" stroke-linejoin="round"/><path d="M 415.0 152.0 L 415.0 804.0" fill="none" stroke="#BDC1C6" stroke-width="1" stroke-dasharray="6,4" stroke-linejoin="round"/><path d="M 675.0 152.0 L 675.0 804.0" fill="none" stroke="#BDC1C6" stroke-width="1" stroke-dasharray="6,4" stroke-linejoin="round"/><path d="M 935.0 152.0 L 935.0 804.0" fill="none" stroke="#BDC1C6" stroke-width="1" stroke-dasharray="6,4" stroke-linejoin="round"/><path d="M 1195.0 152.0 L 1195.0 804.0" fill="none" stroke="#BDC1C6" stroke-width="1" stroke-dasharray="6,4" stroke-linejoin="round"/><path d="M 161.0 212.0 L 409.0 212.0" fill="none" stroke="#4285F4" stroke-width="2" stroke-linejoin="round" marker-end="url(#a4285F4)"/><path d="M 409.0 264.0 L 161.0 264.0" fill="none" stroke="#5F6368" stroke-width="2" stroke-dasharray="6,4" stroke-linejoin="round" marker-end="url(#a5F6368)"/><path d="M 161.0 316.0 L 409.0 316.0 A 6.0 6.0 0 0 1 421.0 316.0 L 669.0 316.0" fill="none" stroke="#4285F4" stroke-width="2" stroke-linejoin="round" marker-end="url(#a4285F4)"/><path d="M 681.0 368.0 L 929.0 368.0" fill="none" stroke="#4285F4" stroke-width="2" stroke-linejoin="round" marker-end="url(#a4285F4)"/><path d="M 941.0 420.0 L 1189.0 420.0" fill="none" stroke="#4285F4" stroke-width="2" stroke-linejoin="round" marker-end="url(#a4285F4)"/><path d="M 1189.0 472.0 L 941.0 472.0" fill="none" stroke="#5F6368" stroke-width="2" stroke-dasharray="6,4" stroke-linejoin="round" marker-end="url(#a5F6368)"/><path d="M 929.0 524.0 L 681.0 524.0" fill="none" stroke="#5F6368" stroke-width="2" stroke-dasharray="6,4" stroke-linejoin="round" marker-end="url(#a5F6368)"/><path d="M 669.0 576.0 L 421.0 576.0 A 6.0 6.0 0 0 0 409.0 576.0 L 161.0 576.0" fill="none" stroke="#5F6368" stroke-width="2" stroke-dasharray="6,4" stroke-linejoin="round" marker-end="url(#a5F6368)"/><path d="M 681.0 628.0 L 929.0 628.0 A 6.0 6.0 0 0 1 941.0 628.0 L 1189.0 628.0" fill="none" stroke="#F9AB00" stroke-width="2" stroke-linejoin="round" marker-end="url(#aF9AB00)"/><path d="M 161.0 680.0 L 409.0 680.0 A 6.0 6.0 0 0 1 421.0 680.0 L 669.0 680.0" fill="none" stroke="#4285F4" stroke-width="2" stroke-linejoin="round" marker-end="url(#a4285F4)"/><path d="M 669.0 732.0 L 421.0 732.0 A 6.0 6.0 0 0 0 409.0 732.0 L 161.0 732.0" fill="none" stroke="#5F6368" stroke-width="2" stroke-dasharray="6,4" stroke-linejoin="round" marker-end="url(#a5F6368)"/><rect x="225.5" y="203.0" width="119.0" height="18.0" rx="3" fill="#ffffff"/><text x="285.0" y="215.0" font-size="10.0" fill="#3C4043" text-anchor="middle" font-weight="normal" font-family="Helvetica, Arial, sans-serif">liatin jagoanku dong</text><rect x="203.7" y="255.0" width="162.6" height="18.0" rx="3" fill="#ffffff"/><text x="285.0" y="267.0" font-size="10.0" fill="#3C4043" text-anchor="middle" font-weight="normal" font-family="Helvetica, Arial, sans-serif">nih BBCA naik 3% paling atas</text><rect x="453.1" y="307.0" width="86.3" height="18.0" rx="3" fill="#ffffff"/><text x="496.3" y="319.0" font-size="10.0" fill="#3C4043" text-anchor="middle" font-weight="normal" font-family="Helvetica, Arial, sans-serif">buka BBCA dong</text><rect x="764.6" y="359.0" width="80.8" height="18.0" rx="3" fill="#ffffff"/><text x="805.0" y="371.0" font-size="10.0" fill="#3C4043" text-anchor="middle" font-weight="normal" font-family="Helvetica, Arial, sans-serif">coba uji BBCA</text><rect x="991.9" y="411.0" width="146.2" height="18.0" rx="3" fill="#ffffff"/><text x="1065.0" y="423.0" font-size="10.0" fill="#3C4043" text-anchor="middle" font-weight="normal" font-family="Helvetica, Arial, sans-serif">minta harga + berita BBCA</text><rect x="989.1" y="463.0" width="151.7" height="18.0" rx="3" fill="#ffffff"/><text x="1065.0" y="475.0" font-size="10.0" fill="#3C4043" text-anchor="middle" font-weight="normal" font-family="Helvetica, Arial, sans-serif">nih harga + berita + maumu</text><rect x="726.4" y="515.0" width="157.2" height="18.0" rx="3" fill="#ffffff"/><text x="805.0" y="527.0" font-size="10.0" fill="#3C4043" text-anchor="middle" font-weight="normal" font-family="Helvetica, Arial, sans-serif">nih 4 bukti + yang ga cocok</text><rect x="255.1" y="567.0" width="157.1" height="18.0" rx="3" fill="#ffffff"/><text x="333.7" y="579.0" font-size="10.0" fill="#3C4043" text-anchor="middle" font-weight="normal" font-family="Helvetica, Arial, sans-serif">nih cerita + bukti + PR-nya</text><rect x="967.7" y="619.0" width="97.2" height="18.0" rx="3" fill="#ffffff"/><text x="1016.3" y="631.0" font-size="10.0" fill="#3C4043" text-anchor="middle" font-weight="normal" font-family="Helvetica, Arial, sans-serif">simpan coretanku</text><rect x="439.5" y="671.0" width="113.6" height="18.0" rx="3" fill="#ffffff"/><text x="496.3" y="683.0" font-size="10.0" fill="#3C4043" text-anchor="middle" font-weight="normal" font-family="Helvetica, Arial, sans-serif">kok masuk hari ini?</text><rect x="211.8" y="723.0" width="162.6" height="18.0" rx="3" fill="#ffffff"/><text x="293.1" y="735.0" font-size="10.0" fill="#3C4043" text-anchor="middle" font-weight="normal" font-family="Helvetica, Arial, sans-serif">soalnya ini... sumbernya ini</text></svg>