<svg xmlns="http://www.w3.org/2000/svg" xmlns:xlink="http://www.w3.org/1999/xlink" width="2219" height="1170" viewBox="-21 -20 2219 1170"><defs><filter id="sh" x="-20%" y="-20%" width="150%" height="150%"><feDropShadow dx="1.5" dy="2" stdDeviation="1.6" flood-color="#000000" flood-opacity="0.22"/></filter><marker id="a4285F4" viewBox="0 0 10 10" refX="9" refY="5" markerWidth="6" markerHeight="6" orient="auto-start-reverse"><path d="M 0 0 L 10 5 L 0 10 z" fill="#4285F4"/></marker><marker id="aF9AB00" viewBox="0 0 10 10" refX="9" refY="5" markerWidth="6" markerHeight="6" orient="auto-start-reverse"><path d="M 0 0 L 10 5 L 0 10 z" fill="#F9AB00"/></marker><marker id="a5F6368" viewBox="0 0 10 10" refX="9" refY="5" markerWidth="6" markerHeight="6" orient="auto-start-reverse"><path d="M 0 0 L 10 5 L 0 10 z" fill="#5F6368"/></marker><marker id="a34A853" viewBox="0 0 10 10" refX="9" refY="5" markerWidth="6" markerHeight="6" orient="auto-start-reverse"><path d="M 0 0 L 10 5 L 0 10 z" fill="#34A853"/></marker></defs><rect x="-20.7" y="-20.0" width="2218.7" height="1170.0" fill="#ffffff"/><rect x="0.0" y="0.0" width="2178.0" height="1130.0" rx="0" fill="#F6F6F6" stroke="none" stroke-width="1"/><rect x="0.0" y="0.0" width="2178.0" height="40.0" rx="0" fill="#4DA1F5" stroke="none" stroke-width="1" filter="url(#sh)"/><text x="10.0" y="24.2" font-size="14.0" fill="#ffffff" text-anchor="start" font-weight="normal" font-family="Helvetica, Arial, sans-serif">Catalyst — isinya apa aja sih? · Ikutin geraknya. Pegang buktinya. misal BBCA naik.</text><rect x="50.0" y="80.0" width="278.0" height="204.0" rx="0" fill="#E1F5FE" stroke="none" stroke-width="1"/><text x="60.0" y="98.0" font-size="12.0" fill="#9E9E9E" text-anchor="start" font-weight="normal" font-family="Helvetica, Arial, sans-serif">Kamu</text><rect x="650.0" y="80.0" width="278.0" height="386.0" rx="0" fill="#E1F5FE" stroke="none" stroke-width="1"/><text x="660.0" y="98.0" font-size="12.0" fill="#9E9E9E" text-anchor="start" font-weight="normal" font-family="Helvetica, Arial, sans-serif">Layar yang kamu buka</text><rect x="1250.0" y="80.0" width="278.0" height="316.0" rx="0" fill="#E1F5FE" stroke="none" stroke-width="1"/><text x="1260.0" y="98.0" font-size="12.0" fill="#9E9E9E" text-anchor="start" font-weight="normal" font-family="Helvetica, Arial, sans-serif">Dapur di belakang</text><rect x="1850.0" y="80.0" width="278.0" height="246.0" rx="0" fill="#E1F5FE" stroke="none" stroke-width="1"/><text x="1860.0" y="98.0" font-size="12.0" fill="#9E9E9E" text-anchor="start" font-weight="normal" font-family="Helvetica, Arial, sans-serif">Gudang simpan</text><rect x="1850.0" y="700.0" width="278.0" height="176.0" rx="0" fill="#E1F5FE" stroke="none" stroke-width="1"/><text x="1860.0" y="718.0" font-size="12.0" fill="#9E9E9E" text-anchor="start" font-weight="normal" font-family="Helvetica, Arial, sans-serif">Urus-urus</text><rect x="64.0" y="114.0" width="250.0" height="58.0" rx="0" fill="#FFFFFF" stroke="#DDDDDD" stroke-width="1" filter="url(#sh)"/><text x="122.0" y="139.4" text-anchor="start" xml:space="preserve" font-family="Helvetica, Arial, sans-serif"><tspan fill="#202124" font-size="13.0" font-weight="bold">Kamu</tspan></text><text x="122.0" y="155.4" text-anchor="start" xml:space="preserve" font-family="Helvetica, Arial, sans-serif"><tspan fill="#5f6368" font-size="12.0" font-weight="normal">misal: jagoin BBCA, ANTM, GOTO</tspan></text><rect x="64.0" y="212.0" width="250.0" height="58.0" rx="0" fill="#FFFFFF" stroke="#DDDDDD" stroke-width="1" filter="url(#sh)"/><text x="122.0" y="237.4" text-anchor="start" xml:space="preserve" font-family="Helvetica, Arial, sans-serif"><tspan fill="#202124" font-size="13.0" font-weight="bold">Cek tiap hari</tspan></text><text x="122.0" y="253.4" text-anchor="start" xml:space="preserve" font-family="Helvetica, Arial, sans-serif"><tspan fill="#5f6368" font-size="12.0" font-weight="normal">buka Hari Ini, liat apa yang gerak</tspan></text><rect x="664.0" y="114.0" width="250.0" height="58.0" rx="0" fill="#FFFFFF" stroke="#DDDDDD" stroke-width="1" filter="url(#sh)"/><text x="722.0" y="139.4" text-anchor="start" xml:space="preserve" font-family="Helvetica, Arial, sans-serif"><tspan fill="#202124" font-size="13.0" font-weight="bold">Hari Ini</tspan></text><text x="722.0" y="155.4" text-anchor="start" xml:space="preserve" font-family="Helvetica, Arial, sans-serif"><tspan fill="#5f6368" font-size="12.0" font-weight="normal">misal: BBCA naik 3%, GOTO rame</tspan></text><rect x="664.0" y="184.0" width="250.0" height="58.0" rx="0" fill="#FFFFFF" stroke="#DDDDDD" stroke-width="1" filter="url(#sh)"/><text x="722.0" y="209.4" text-anchor="start" xml:space="preserve" font-family="Helvetica, Arial, sans-serif"><tspan fill="#202124" font-size="13.0" font-weight="bold">Bedah</tspan></text><text x="722.0" y="225.4" text-anchor="start" xml:space="preserve" font-family="Helvetica, Arial, sans-serif"><tspan fill="#5f6368" font-size="12.0" font-weight="normal">misal: kok BBCA naik? cek 4 bukti</tspan></text><rect x="664.0" y="254.0" width="250.0" height="58.0" rx="0" fill="#FFFFFF" stroke="#DDDDDD" stroke-width="1" filter="url(#sh)"/><text x="722.0" y="279.4" text-anchor="start" xml:space="preserve" font-family="Helvetica, Arial, sans-serif"><tspan fill="#202124" font-size="13.0" font-weight="bold">Alur duit</tspan></text><text x="722.0" y="295.4" text-anchor="start" xml:space="preserve" font-family="Helvetica, Arial, sans-serif"><tspan fill="#5f6368" font-size="12.0" font-weight="normal">misal: kabar oke -&amp;gt; jualan naik -&amp;gt; harga naik?</tspan></text><rect x="664.0" y="324.0" width="250.0" height="58.0" rx="0" fill="#FFFFFF" stroke="#DDDDDD" stroke-width="1" filter="url(#sh)"/><text x="722.0" y="349.4" text-anchor="start" xml:space="preserve" font-family="Helvetica, Arial, sans-serif"><tspan fill="#202124" font-size="13.0" font-weight="bold">Tanya-tanya</tspan></text><text x="722.0" y="365.4" text-anchor="start" xml:space="preserve" font-family="Helvetica, Arial, sans-serif"><tspan fill="#5f6368" font-size="12.0" font-weight="normal">misal: kok masuk hari ini? dijawab + sumber</tspan></text><rect x="664.0" y="394.0" width="250.0" height="58.0" rx="0" fill="#FFFFFF" stroke="#DDDDDD" stroke-width="1" filter="url(#sh)"/><text x="722.0" y="419.4" text-anchor="start" xml:space="preserve" font-family="Helvetica, Arial, sans-serif"><tspan fill="#202124" font-size="13.0" font-weight="bold">Mauku</tspan></text><text x="722.0" y="435.4" text-anchor="start" xml:space="preserve" font-family="Helvetica, Arial, sans-serif"><tspan fill="#5f6368" font-size="12.0" font-weight="normal">misal: cuma mau yang naik &amp;gt;2%</tspan></text><rect x="1264.0" y="114.0" width="250.0" height="58.0" rx="0" fill="#FFFFFF" stroke="#DDDDDD" stroke-width="1" filter="url(#sh)"/><text x="1322.0" y="139.4" text-anchor="start" xml:space="preserve" font-family="Helvetica, Arial, sans-serif"><tspan fill="#202124" font-size="13.0" font-weight="bold">Tukang cek</tspan></text><text x="1322.0" y="155.4" text-anchor="start" xml:space="preserve" font-family="Helvetica, Arial, sans-serif"><tspan fill="#5f6368" font-size="12.0" font-weight="normal">misal: siapa beli? rame ga? ikut pasar ga?</tspan></text><rect x="1264.0" y="184.0" width="250.0" height="58.0" rx="0" fill="#FFFFFF" stroke="#DDDDDD" stroke-width="1" filter="url(#sh)"/><text x="1322.0" y="209.4" text-anchor="start" xml:space="preserve" font-family="Helvetica, Arial, sans-serif"><tspan fill="#202124" font-size="13.0" font-weight="bold">Tukang gambar</tspan></text><text x="1322.0" y="225.4" text-anchor="start" xml:space="preserve" font-family="Helvetica, Arial, sans-serif"><tspan fill="#5f6368" font-size="12.0" font-weight="normal">misal: sebabnya apa, hasilnya apa</tspan></text><rect x="1264.0" y="254.0" width="250.0" height="58.0" rx="0" fill="#FFFFFF" stroke="#DDDDDD" stroke-width="1" filter="url(#sh)"/><text x="1322.0" y="279.4" text-anchor="start" xml:space="preserve" font-family="Helvetica, Arial, sans-serif"><tspan fill="#202124" font-size="13.0" font-weight="bold">Tukang jawab</tspan></text><text x="1322.0" y="295.4" text-anchor="start" xml:space="preserve" font-family="Helvetica, Arial, sans-serif"><tspan fill="#5f6368" font-size="12.0" font-weight="normal">jawab + kasih liat sumbernya</tspan></text><rect x="1264.0" y="324.0" width="250.0" height="58.0" rx="0" fill="#FFFFFF" stroke="#DDDDDD" stroke-width="1" filter="url(#sh)"/><text x="1322.0" y="349.4" text-anchor="start" xml:space="preserve" font-family="Helvetica, Arial, sans-serif"><tspan fill="#202124" font-size="13.0" font-weight="bold">Pak jujur</tspan></text><text x="1322.0" y="365.4" text-anchor="start" xml:space="preserve" font-family="Helvetica, Arial, sans-serif"><tspan fill="#5f6368" font-size="12.0" font-weight="normal">ga boleh ajak beli-jual, wajib ada sumber</tspan></text><rect x="1864.0" y="114.0" width="250.0" height="58.0" rx="0" fill="#FFFFFF" stroke="#DDDDDD" stroke-width="1" filter="url(#sh)"/><text x="1922.0" y="139.4" text-anchor="start" xml:space="preserve" font-family="Helvetica, Arial, sans-serif"><tspan fill="#202124" font-size="13.0" font-weight="bold">Buku pasar</tspan></text><text x="1922.0" y="155.4" text-anchor="start" xml:space="preserve" font-family="Helvetica, Arial, sans-serif"><tspan fill="#5f6368" font-size="12.0" font-weight="normal">misal: harga + berita 11 Sep kemarin</tspan></text><rect x="1864.0" y="184.0" width="250.0" height="58.0" rx="0" fill="#FFFFFF" stroke="#DDDDDD" stroke-width="1" filter="url(#sh)"/><text x="1922.0" y="209.4" text-anchor="start" xml:space="preserve" font-family="Helvetica, Arial, sans-serif"><tspan fill="#202124" font-size="13.0" font-weight="bold">Buku aku</tspan></text><text x="1922.0" y="225.4" text-anchor="start" xml:space="preserve" font-family="Helvetica, Arial, sans-serif"><tspan fill="#5f6368" font-size="12.0" font-weight="normal">misal: jagoin apa, catatan, pelajaran</tspan></text><rect x="1864.0" y="254.0" width="250.0" height="58.0" rx="0" fill="#FFFFFF" stroke="#DDDDDD" stroke-width="1" filter="url(#sh)"/><text x="1922.0" y="279.4" text-anchor="start" xml:space="preserve" font-family="Helvetica, Arial, sans-serif"><tspan fill="#202124" font-size="13.0" font-weight="bold">Catat harga</tspan></text><text x="1922.0" y="295.4" text-anchor="start" xml:space="preserve" font-family="Helvetica, Arial, sans-serif"><tspan fill="#5f6368" font-size="12.0" font-weight="normal">misal: harga BBCA tiap hari</tspan></text><rect x="1864.0" y="734.0" width="250.0" height="58.0" rx="0" fill="#FFFFFF" stroke="#DDDDDD" stroke-width="1" filter="url(#sh)"/><text x="1922.0" y="759.4" text-anchor="start" xml:space="preserve" font-family="Helvetica, Arial, sans-serif"><tspan fill="#202124" font-size="13.0" font-weight="bold">Tukang rapi</tspan></text><text x="1922.0" y="775.4" text-anchor="start" xml:space="preserve" font-family="Helvetica, Arial, sans-serif"><tspan fill="#5f6368" font-size="12.0" font-weight="normal">beresin arsip sekali aja</tspan></text><rect x="1864.0" y="804.0" width="250.0" height="58.0" rx="0" fill="#FFFFFF" stroke="#DDDDDD" stroke-width="1" filter="url(#sh)"/><text x="1922.0" y="829.4" text-anchor="start" xml:space="preserve" font-family="Helvetica, Arial, sans-serif"><tspan fill="#202124" font-size="13.0" font-weight="bold">Tukang ingat</tspan></text><text x="1922.0" y="845.4" text-anchor="start" xml:space="preserve" font-family="Helvetica, Arial, sans-serif"><tspan fill="#5f6368" font-size="12.0" font-weight="normal">ingetin kamu di browser ini</tspan></text><rect x="50.0" y="936.0" width="640.0" height="144.0" rx="8" fill="#FFFFFF" stroke="#DDDDDD" stroke-width="1"/><text x="60.0" y="955.0" font-size="13.0" fill="#3C4043" text-anchor="start" font-weight="bold" font-family="Helvetica, Arial, sans-serif">Connector legend</text><text x="136.0" y="980.0" font-size="12.0" fill="#3C4043" text-anchor="start" font-weight="normal" font-family="Helvetica, Arial, sans-serif">kamu tanya, layar jawab</text><text x="136.0" y="1006.0" font-size="12.0" fill="#3C4043" text-anchor="start" font-weight="normal" font-family="Helvetica, Arial, sans-serif">baca yang disimpan</text><text x="136.0" y="1032.0" font-size="12.0" fill="#3C4043" text-anchor="start" font-weight="normal" font-family="Helvetica, Arial, sans-serif">lanjut liat</text><text x="136.0" y="1058.0" font-size="12.0" fill="#3C4043" text-anchor="start" font-weight="normal" font-family="Helvetica, Arial, sans-serif">urus-urus</text><path d="M 314.0 241.0 L 374.0 241.0 L 374.0 131.0 L 664.0 131.4" fill="none" stroke="#4285F4" stroke-width="2" stroke-linejoin="round" marker-end="url(#a4285F4)"/><path d="M 314.0 143.0 L 368.0 143.0 A 6.0 6.0 0 0 1 380.0 143.0 L 404.0 143.0 L 404.0 213.0 L 664.0 213.0" fill="none" stroke="#4285F4" stroke-width="2" stroke-linejoin="round" marker-end="url(#a4285F4)"/><path d="M 914.0 131.4 L 974.0 131.0 L 974.0 128.0 L 1264.0 128.5" fill="none" stroke="#4285F4" stroke-width="2" stroke-linejoin="round" marker-end="url(#a4285F4)"/><path d="M 914.0 213.0 L 1004.0 213.0 L 1004.0 137.0 L 1264.0 137.2" fill="none" stroke="#4285F4" stroke-width="2" stroke-linejoin="round" marker-end="url(#a4285F4)"/><path d="M 914.0 283.0 L 1034.0 283.0 L 1034.0 213.0 L 1264.0 213.0" fill="none" stroke="#4285F4" stroke-width="2" stroke-linejoin="round" marker-end="url(#a4285F4)"/><path d="M 914.0 353.0 L 1064.0 353.0 L 1064.0 292.0 L 1264.0 291.7" fill="none" stroke="#4285F4" stroke-width="2" stroke-linejoin="round" marker-end="url(#a4285F4)"/><path d="M 914.0 423.0 L 1094.0 423.0 L 1094.0 370.0 L 1264.0 370.4" fill="none" stroke="#4285F4" stroke-width="2" stroke-linejoin="round" marker-end="url(#a4285F4)"/><path d="M 1514.0 131.4 L 1864.0 131.4" fill="none" stroke="#F9AB00" stroke-width="2" stroke-linejoin="round" marker-end="url(#aF9AB00)"/><path d="M 1514.0 213.0 L 1604.0 213.0 L 1604.0 143.0 L 1718.0 143.0 A 6.0 6.0 0 0 1 1730.0 143.0 L 1864.0 143.0" fill="none" stroke="#F9AB00" stroke-width="2" stroke-linejoin="round" marker-end="url(#aF9AB00)"/><path d="M 1514.0 294.6 L 1634.0 295.0 L 1634.0 225.0 L 1688.0 225.0 A 6.0 6.0 0 0 1 1700.0 225.0 L 1718.0 225.0 A 6.0 6.0 0 0 1 1730.0 225.0 L 1864.0 224.6" fill="none" stroke="#F9AB00" stroke-width="2" stroke-linejoin="round" marker-end="url(#aF9AB00)"/><path d="M 1514.0 373.3 L 1664.0 373.0 L 1664.0 233.0 L 1688.0 233.0 A 6.0 6.0 0 0 1 1700.0 233.0 L 1718.0 233.0 A 6.0 6.0 0 0 1 1730.0 233.0 L 1864.0 233.3" fill="none" stroke="#F9AB00" stroke-width="2" stroke-linejoin="round" marker-end="url(#aF9AB00)"/><path d="M 1514.0 137.2 L 1694.0 137.0 L 1694.0 277.0 L 1718.0 277.0 A 6.0 6.0 0 0 1 1730.0 277.0 L 1864.0 277.2" fill="none" stroke="#F9AB00" stroke-width="2" stroke-linejoin="round" marker-end="url(#aF9AB00)"/><path d="M 1514.0 134.3 L 1724.0 134.0 L 1724.0 751.0 L 1748.0 751.0 A 6.0 6.0 0 0 1 1760.0 751.0 L 1864.0 751.4" fill="none" stroke="#5F6368" stroke-width="2" stroke-dasharray="6,4" stroke-linejoin="round" marker-end="url(#a5F6368)"/><path d="M 1514.0 358.8 L 1658.0 358.8 A 6.0 6.0 0 0 1 1670.0 358.8 L 1718.0 358.8 A 6.0 6.0 0 0 1 1730.0 358.8 L 1754.0 359.0 L 1754.0 839.0 L 1864.0 838.8" fill="none" stroke="#5F6368" stroke-width="2" stroke-dasharray="6,4" stroke-linejoin="round" marker-end="url(#a5F6368)"/><path d="M 189.0 172.0 L 189.0 212.0" fill="none" stroke="#34A853" stroke-width="2" stroke-linejoin="round" marker-end="url(#a34A853)"/><path d="M 68.0 976.0 L 124.0 976.0" fill="none" stroke="#4285F4" stroke-width="2" stroke-linejoin="round" marker-end="url(#a4285F4)"/><path d="M 68.0 1002.0 L 124.0 1002.0" fill="none" stroke="#F9AB00" stroke-width="2" stroke-linejoin="round" marker-end="url(#aF9AB00)"/><path d="M 68.0 1028.0 L 124.0 1028.0" fill="none" stroke="#34A853" stroke-width="2" stroke-linejoin="round" marker-end="url(#a34A853)"/><path d="M 68.0 1054.0 L 124.0 1054.0" fill="none" stroke="#5F6368" stroke-width="2" stroke-dasharray="6,4" stroke-linejoin="round" marker-end="url(#a5F6368)"/><rect x="416.7" y="122.1" width="80.9" height="18.0" rx="3" fill="#ffffff"/><text x="457.1" y="134.1" font-size="10.0" fill="#3C4043" text-anchor="middle" font-weight="normal" font-family="Helvetica, Arial, sans-serif">buka Hari Ini</text><rect x="384.4" y="204.0" width="97.2" height="18.0" rx="3" fill="#ffffff"/><text x="433.0" y="216.0" font-size="10.0" fill="#3C4043" text-anchor="middle" font-weight="normal" font-family="Helvetica, Arial, sans-serif">pilih misal BBCA</text><rect x="1019.0" y="107.2" width="119.0" height="18.0" rx="3" fill="#ffffff"/><text x="1078.5" y="119.2" font-size="10.0" fill="#3C4043" text-anchor="middle" font-weight="normal" font-family="Helvetica, Arial, sans-serif">misal BBCA gerak apa</text><rect x="955.4" y="161.9" width="97.2" height="18.0" rx="3" fill="#ffffff"/><text x="1004.0" y="173.9" font-size="10.0" fill="#3C4043" text-anchor="middle" font-weight="normal" font-family="Helvetica, Arial, sans-serif">cek si BBCA dong</text><rect x="1034.6" y="204.0" width="80.8" height="18.0" rx="3" fill="#ffffff"/><text x="1075.0" y="216.0" font-size="10.0" fill="#3C4043" text-anchor="middle" font-weight="normal" font-family="Helvetica, Arial, sans-serif">adu 2 tebakan</text><rect x="1041.5" y="283.0" width="75.4" height="18.0" rx="3" fill="#ffffff"/><text x="1079.2" y="295.0" font-size="10.0" fill="#3C4043" text-anchor="middle" font-weight="normal" font-family="Helvetica, Arial, sans-serif">nanya santai</text><rect x="1037.2" y="412.5" width="113.6" height="18.0" rx="3" fill="#ffffff"/><text x="1094.0" y="424.5" font-size="10.0" fill="#3C4043" text-anchor="middle" font-weight="normal" font-family="Helvetica, Arial, sans-serif">mauku yang gede aja</text><rect x="1730.6" y="122.4" width="91.8" height="18.0" rx="3" fill="#ffffff"/><text x="1776.5" y="134.4" font-size="10.0" fill="#3C4043" text-anchor="middle" font-weight="normal" font-family="Helvetica, Arial, sans-serif">baca buku pasar</text><rect x="1549.8" y="204.0" width="75.4" height="18.0" rx="3" fill="#ffffff"/><text x="1587.5" y="216.0" font-size="10.0" fill="#3C4043" text-anchor="middle" font-weight="normal" font-family="Helvetica, Arial, sans-serif">baca laporan</text><rect x="1567.9" y="285.9" width="80.8" height="18.0" rx="3" fill="#ffffff"/><text x="1608.4" y="297.9" font-size="10.0" fill="#3C4043" text-anchor="middle" font-weight="normal" font-family="Helvetica, Arial, sans-serif">baca buku aku</text><rect x="1634.5" y="330.3" width="59.1" height="18.0" rx="3" fill="#ffffff"/><text x="1664.0" y="342.3" font-size="10.0" fill="#3C4043" text-anchor="middle" font-weight="normal" font-family="Helvetica, Arial, sans-serif">cek mauku</text><rect x="1741.9" y="268.1" width="97.2" height="18.0" rx="3" fill="#ffffff"/><text x="1790.5" y="280.1" font-size="10.0" fill="#3C4043" text-anchor="middle" font-weight="normal" font-family="Helvetica, Arial, sans-serif">liat catat harga</text><rect x="1639.2" y="398.6" width="80.8" height="18.0" rx="3" fill="#ffffff"/><text x="1679.6" y="410.6" font-size="10.0" fill="#3C4043" text-anchor="middle" font-weight="normal" font-family="Helvetica, Arial, sans-serif">minta beresin</text><rect x="1710.8" y="794.9" width="86.3" height="18.0" rx="3" fill="#ffffff"/><text x="1754.0" y="806.9" font-size="10.0" fill="#3C4043" text-anchor="middle" font-weight="normal" font-family="Helvetica, Arial, sans-serif">simpan di sini</text><rect x="140.4" y="181.0" width="97.2" height="18.0" rx="3" fill="#ffffff"/><text x="189.0" y="193.0" font-size="10.0" fill="#3C4043" text-anchor="middle" font-weight="normal" font-family="Helvetica, Arial, sans-serif">mulai cek harian</text></svg>